HIERARCHY
ROOT Hips
{
    OFFSET   0.000000   0.000000   0.000000
    CHANNELS 6 Xposition Yposition Zposition Zrotation Xrotation Yrotation
    JOINT Chest
    {
        OFFSET   0.000000   8.007230   0.000000
        CHANNELS 3 Zrotation Xrotation Yrotation
        JOINT Chest2
        {
            OFFSET   0.000000  22.077100   0.000000
            CHANNELS 3 Zrotation Xrotation Yrotation
            JOINT Neck
            {
                OFFSET   0.000000  23.254700   0.000000
                CHANNELS 3 Zrotation Xrotation Yrotation
                JOINT Head
                {
                    OFFSET   0.000010  14.370000   1.956610
                    CHANNELS 3 Zrotation Xrotation Yrotation
                    End Site
                    {
                        OFFSET   0.000000  19.566000   0.000000
                    }
                }
            }
            JOINT LeftCollar
            {
                OFFSET   3.911900  19.017000  -0.467063
                CHANNELS 3 Zrotation Xrotation Yrotation
                JOINT LeftShoulder
                {
                    OFFSET  10.383700   0.000000   0.000000
                    CHANNELS 3 Zrotation Xrotation Yrotation
                    JOINT LeftElbow
                    {
                        OFFSET  26.662100   0.001671   0.000522
                        CHANNELS 3 Zrotation Xrotation Yrotation
                        JOINT LeftWrist
                        {
                            OFFSET  28.869000   0.000037  -0.000114
                            CHANNELS 3 Zrotation Xrotation Yrotation
                            JOINT LeftFinger0
                            {
                                OFFSET   2.044650  -2.323450   3.252850
                                CHANNELS 3 Zrotation Xrotation Yrotation
                                JOINT LeftFinger01
                                {
                                    OFFSET   3.088140   0.000000   0.000000
                                    CHANNELS 3 Zrotation Xrotation Yrotation
                                    JOINT LeftFinger02
                                    {
                                        OFFSET   2.639460   0.000000   0.000000
                                        CHANNELS 3 Zrotation Xrotation Yrotation
                                        End Site
                                        {
                                            OFFSET   2.582190   0.000000   0.000000
                                        }
                                    }
                                }
                            }
                            JOINT LeftFinger1
                            {
                                OFFSET   8.364480   0.000000   3.252850
                                CHANNELS 3 Zrotation Xrotation Yrotation
                                JOINT LeftFinger11
                                {
                                    OFFSET   4.646930   0.000000   0.000000
                                    CHANNELS 3 Zrotation Xrotation Yrotation
                                    JOINT LeftFinger12
                                    {
                                        OFFSET   2.323470   0.000000   0.000000
                                        CHANNELS 3 Zrotation Xrotation Yrotation
                                        End Site
                                        {
                                            OFFSET   2.273050   0.000000   0.000000
                                        }
                                    }
                                }
                            }
                            JOINT LeftFinger2
                            {
                                OFFSET   8.364490   0.000016   1.078090
                                CHANNELS 3 Zrotation Xrotation Yrotation
                                JOINT LeftFinger21
                                {
                                    OFFSET   5.111620   0.000000   0.000000
                                    CHANNELS 3 Zrotation Xrotation Yrotation
                                    JOINT LeftFinger22
                                    {
                                        OFFSET   2.788150   0.000013   0.000000
                                        CHANNELS 3 Zrotation Xrotation Yrotation
                                        End Site
                                        {
                                            OFFSET   2.727660   0.000000   0.000000
                                        }
                                    }
                                }
                            }
                            JOINT LeftFinger3
                            {
                                OFFSET   7.899780   0.000016  -1.078090
                                CHANNELS 3 Zrotation Xrotation Yrotation
                                JOINT LeftFinger31
                                {
                                    OFFSET   4.646930   0.000000   0.000000
                                    CHANNELS 3 Zrotation Xrotation Yrotation
                                    JOINT LeftFinger32
                                    {
                                        OFFSET   2.323470   0.000000   0.000000
                                        CHANNELS 3 Zrotation Xrotation Yrotation
                                        End Site
                                        {
                                            OFFSET   2.273050   0.000000   0.000000
                                        }
                                    }
                                }
                            }
                            JOINT LeftFinger4
                            {
                                OFFSET   7.435080   0.000000  -3.252850
                                CHANNELS 3 Zrotation Xrotation Yrotation
                                JOINT LeftFinger41
                                {
                                    OFFSET   3.717550   0.000000   0.000000
                                    CHANNELS 3 Zrotation Xrotation Yrotation
                                    JOINT LeftFinger42
                                    {
                                        OFFSET   1.858760   0.000000   0.000000
                                        CHANNELS 3 Zrotation Xrotation Yrotation
                                        End Site
                                        {
                                            OFFSET   1.818440   0.000000   0.000000
                                        }
                                    }
                                }
                            }
                        }
                    }
                }
            }
            JOINT RightCollar
            {
                OFFSET  -3.911900  19.017000  -0.467064
                CHANNELS 3 Zrotation Xrotation Yrotation
                JOINT RightShoulder
                {
                    OFFSET -10.383700   0.000000   0.000000
                    CHANNELS 3 Zrotation Xrotation Yrotation
                    JOINT RightElbow
                    {
                        OFFSET -26.662100   0.001633   0.000260
                        CHANNELS 3 Zrotation Xrotation Yrotation
                        JOINT RightWrist
                        {
                            OFFSET -28.869000  -0.000045  -0.000080
                            CHANNELS 3 Zrotation Xrotation Yrotation
                            JOINT RightFinger0
                            {
                                OFFSET  -2.044660  -2.323490   3.252850
                                CHANNELS 3 Zrotation Xrotation Yrotation
                                JOINT RightFinger01
                                {
                                    OFFSET  -3.088140   0.000000   0.000000
                                    CHANNELS 3 Zrotation Xrotation Yrotation
                                    JOINT RightFinger02
                                    {
                                        OFFSET  -2.639450   0.000000   0.000000
                                        CHANNELS 3 Zrotation Xrotation Yrotation
                                        End Site
                                        {
                                            OFFSET  -2.582190   0.000000   0.000000
                                        }
                                    }
                                }
                            }
                            JOINT RightFinger1
                            {
                                OFFSET  -8.364480   0.000000   3.252850
                                CHANNELS 3 Zrotation Xrotation Yrotation
                                JOINT RightFinger11
                                {
                                    OFFSET  -4.646920   0.000000   0.000000
                                    CHANNELS 3 Zrotation Xrotation Yrotation
                                    JOINT RightFinger12
                                    {
                                        OFFSET  -2.323470   0.000000   0.000000
                                        CHANNELS 3 Zrotation Xrotation Yrotation
                                        End Site
                                        {
                                            OFFSET  -2.273050   0.000000   0.000000
                                        }
                                    }
                                }
                            }
                            JOINT RightFinger2
                            {
                                OFFSET  -8.364480   0.000000   1.078090
                                CHANNELS 3 Zrotation Xrotation Yrotation
                                JOINT RightFinger21
                                {
                                    OFFSET  -5.111610   0.000000   0.000000
                                    CHANNELS 3 Zrotation Xrotation Yrotation
                                    JOINT RightFinger22
                                    {
                                        OFFSET  -2.788160   0.000000   0.000000
                                        CHANNELS 3 Zrotation Xrotation Yrotation
                                        End Site
                                        {
                                            OFFSET  -2.727660   0.000000   0.000000
                                        }
                                    }
                                }
                            }
                            JOINT RightFinger3
                            {
                                OFFSET  -7.899780   0.000000  -1.078090
                                CHANNELS 3 Zrotation Xrotation Yrotation
                                JOINT RightFinger31
                                {
                                    OFFSET  -4.646930   0.000000   0.000000
                                    CHANNELS 3 Zrotation Xrotation Yrotation
                                    JOINT RightFinger32
                                    {
                                        OFFSET  -2.323470   0.000000   0.000000
                                        CHANNELS 3 Zrotation Xrotation Yrotation
                                        End Site
                                        {
                                            OFFSET  -2.273050   0.000000   0.000000
                                        }
                                    }
                                }
                            }
                            JOINT RightFinger4
                            {
                                OFFSET  -7.435090   0.000000  -3.252850
                                CHANNELS 3 Zrotation Xrotation Yrotation
                                JOINT RightFinger41
                                {
                                    OFFSET  -3.717550   0.000000   0.000000
                                    CHANNELS 3 Zrotation Xrotation Yrotation
                                    JOINT RightFinger42
                                    {
                                        OFFSET  -1.858760   0.000000   0.000000
                                        CHANNELS 3 Zrotation Xrotation Yrotation
                                        End Site
                                        {
                                            OFFSET  -1.818440   0.000000   0.000000
                                        }
                                    }
                                }
                            }
                        }
                    }
                }
            }
        }
    }
    JOINT LeftHip
    {
        OFFSET   9.782990   0.000000   0.000000
        CHANNELS 3 Zrotation Xrotation Yrotation
        JOINT LeftKnee
        {
            OFFSET  -0.000063 -41.789100   0.001657
            CHANNELS 3 Zrotation Xrotation Yrotation
            JOINT LeftAnkle
            {
                OFFSET   0.000078 -41.133200  -0.000113
                CHANNELS 3 Zrotation Xrotation Yrotation
                JOINT LeftToe
                {
                    OFFSET   0.000000  -6.358970  14.674500
                    CHANNELS 3 Zrotation Xrotation Yrotation
                    End Site
                    {
                        OFFSET   0.000000   0.000000   3.913200
                    }
                }
            }
        }
    }
    JOINT RightHip
    {
        OFFSET  -9.782990   0.000000   0.000000
        CHANNELS 3 Zrotation Xrotation Yrotation
        JOINT RightKnee
        {
            OFFSET   0.000053 -41.789200   0.000277
            CHANNELS 3 Zrotation Xrotation Yrotation
            JOINT RightAnkle
            {
                OFFSET   0.000030 -41.133200  -0.000150
                CHANNELS 3 Zrotation Xrotation Yrotation
                JOINT RightToe
                {
                    OFFSET   0.000000  -6.358960  14.674500
                    CHANNELS 3 Zrotation Xrotation Yrotation
                    End Site
                    {
                        OFFSET   0.000000   0.000000   3.913200
                    }
                }
            }
        }
    }
}
MOTION
Frames: 4
Frame Time:   0.016667
  3.272460  89.284000   1.207680  -5.668600 -24.917900  -2.295360  -0.394451  14.616700   3.252480  -1.770690  29.183500   6.971920   0.866857  -2.627590   0.049017   1.432140  -5.324570   0.692934  -5.865600 -10.618800  -1.827570 -46.201800  16.789300 -73.763800  20.500600 -12.389600 -38.434500   0.782262 -30.095700  -0.438381  44.097200  33.984900 -40.717000 -24.252000   0.003473   0.001465  -7.126020   0.001180   0.000720   4.044680   0.688838   9.650320  -0.000000   0.000819   0.001026   0.001518  -0.007393  -0.006776 -88.981900  -9.673090   0.177453 -96.273800  -0.000950  -0.001967 -72.205400   0.004439  -0.012434 -88.977900  -9.673070   0.180090 -91.003400  -0.000939  -0.008030 -68.252600   0.008362  -0.001965 -88.980600  -9.998170   0.182761 -110.000000  -0.001277   0.006988 -80.000000  -0.002141  -0.004555   9.617420  -7.297070  12.566700  49.618100  -3.008100  58.672500 -36.480200 -16.828700  32.734700   8.419560 -28.374300   6.903920 -47.923800  37.797700  46.551100  22.880300  -0.003770   0.001536   6.440150  -0.001992   0.000527  17.435700   1.858360   5.894510  14.343600   0.001853  -0.001115  10.040600   0.000365   0.010339  89.001700  -0.002981   0.002412 110.000000  -0.000736  -0.001164  79.997400  -0.000920  -0.008304  88.990700  -4.997630  -0.089945 107.849000   0.009454   0.001502  79.992200   0.000679  -0.002551  88.980100  -9.995270  -0.176299 110.000000   0.000000  -0.005926  80.000000   0.006852   0.001567   3.644460  27.215600   7.858760   0.766099   0.000890   5.277280  -1.351670  -3.092410  -0.160539   0.000000   0.000000   0.000000   4.838860  21.533500   0.069277  -3.851510  11.158700  -8.825770   3.549170  -6.949900   2.023090   0.000000   0.000000  -0.000000
  3.310330  89.289900   1.232330  -5.684420 -24.897200  -2.306730  -0.393544  14.589100   3.265170  -1.770360  29.128100   6.996640   0.870978  -2.650750   0.049020   1.438670  -5.371370   0.643124  -5.857450 -10.567400  -1.793500 -46.108100  16.789800 -73.940300  20.545400 -12.388200 -38.442800   0.767499 -30.075100  -0.477170  44.193800  34.217800 -40.936200 -24.329400   0.003465   0.001516  -7.164740   0.001180   0.000719   3.935730   0.671607   9.692740  -0.000000   0.000854   0.001022   0.001535  -0.007684  -0.007065 -88.981700  -9.714290   0.177164 -96.291500  -0.000922  -0.002049 -72.218700   0.004618  -0.012392 -88.977500  -9.714270   0.179806 -91.019400  -0.000938  -0.008364 -68.264500   0.008703  -0.001929 -88.980500  -9.998000   0.182709 -110.000000  -0.001203   0.007034 -80.000000  -0.002043  -0.004599   9.595220  -7.271430  12.529700  49.457400  -2.977660  58.773000 -36.453200 -16.855000  32.563200   8.556410 -28.398900   6.921470 -47.798100  37.739100  46.390600  22.981900  -0.004069   0.001608   6.490920  -0.002152   0.000560  17.438700   1.862440   5.906630  14.346900   0.001842  -0.000962  10.042900   0.000648   0.010591  89.001600  -0.003138   0.002233 110.000000  -0.000805  -0.001286  79.997300  -0.000966  -0.008095  88.990700  -4.997560  -0.090054 107.757000   0.009806   0.001431  79.991900   0.000606  -0.002537  88.979800  -9.995120  -0.176302 110.000000   0.000000  -0.005989  79.999900   0.007137   0.001642   3.638370  27.195400   7.844610   0.744427   0.031894   5.260420  -1.338170  -3.121420  -0.112503   0.000000   0.000000   0.000000   4.816580  21.552800   0.070527  -3.856780  11.119900  -8.827290   3.559990  -6.941270   2.039260  -0.000000   0.000000  -0.000000
  3.345290  89.295400   1.258240  -5.706020 -24.873500  -2.334850  -0.392765  14.559500   3.280460  -1.770120  29.068500   7.026750   0.881112  -2.681050   0.049024   1.455920  -5.432510   0.564055  -5.853850 -10.530000  -1.780370 -46.018800  16.766700 -74.067100  20.555200 -12.385800 -38.457300   0.753605 -29.974100  -0.515524  44.328300  34.465700 -41.199700 -24.382000   0.003458   0.001568  -7.191000   0.001180   0.000717   3.825730   0.659109   9.757630  -0.000000   0.000887   0.001000   0.001553  -0.007971  -0.007351 -88.981400  -9.777950   0.176883 -96.298100  -0.000899  -0.002133 -72.223600   0.004801  -0.012345 -88.977000  -9.777950   0.179516 -91.021700  -0.000937  -0.008701 -68.266200   0.009043  -0.001895 -88.980400  -9.997830   0.182647 -110.000000  -0.001128   0.007076 -80.000000  -0.001946  -0.004640   9.578640  -7.246710  12.494500  49.273500  -2.935450  58.854800 -36.442400 -16.888200  32.351700   8.699040 -28.424100   6.928950 -47.726200  37.713800  46.302800  23.050000  -0.004367   0.001680   6.524980  -0.002313   0.000584  17.445800   1.890950   5.991470  14.355100   0.001834  -0.000806  10.048600   0.000944   0.010836  89.001500  -0.003297   0.002055 110.000000  -0.000872  -0.001405  79.997200  -0.001007  -0.007890  88.990700  -4.997500  -0.090161 107.718000   0.010153   0.001368  79.991700   0.000540  -0.002528  88.979600  -9.994960  -0.176306 110.000000   0.000000  -0.006050  79.999900   0.007425   0.001714   3.635620  27.177000   7.820200   0.723691   0.075714   5.245290  -1.327870  -3.163090  -0.049861  -0.000000   0.000000  -0.000000   4.791530  21.567700   0.075350  -3.861080  11.077700  -8.826400   3.578010  -6.933550   2.052790   0.000000   0.000000   0.000000
  3.378280  89.301000   1.285890  -5.730500 -24.841600  -2.377480  -0.393677  14.524300   3.298570  -1.774630  28.997600   7.063400   0.897873  -2.717930   0.049046   1.483990  -5.507110   0.474611  -5.885300 -10.522300  -1.811100 -45.922300  16.732100 -74.121500  20.562200 -12.364100 -38.460100   0.771255 -29.725900  -0.511992  44.409000  34.590800 -41.344900 -24.380200   0.003461   0.001569  -7.190100   0.001182   0.000714   3.915370   0.677127   9.795790  -0.000000   0.000908   0.000953   0.001627  -0.008257  -0.007630 -88.981200  -9.817200   0.176581 -96.202700  -0.000876  -0.002211 -72.152000   0.004993  -0.012284 -88.976600  -9.817190   0.179193 -90.983700  -0.000947  -0.009039 -68.237800   0.009404  -0.001854 -88.980300  -9.997650   0.182574 -110.000000  -0.001048   0.007114 -80.000000  -0.001846  -0.004681   9.562300  -7.219800  12.456900  49.241300  -2.912410  58.883800 -36.394000 -16.865700  32.299300   8.873020 -28.354400   6.938720 -47.838200  37.816900  46.467200  23.013100  -0.004668   0.001760   6.506510  -0.002472   0.000585  17.452600   1.980870   6.270890  14.368200   0.001839  -0.000639  10.057800   0.001247   0.011077  89.001400  -0.003456   0.001890 110.000000  -0.000942  -0.001524  79.997200  -0.001034  -0.007685  88.990700  -4.997440  -0.090261 107.685000   0.010490   0.001324  79.991400   0.000489  -0.002536  88.979400  -9.994830  -0.176307 110.000000   0.000000  -0.006105  79.999900   0.007723   0.001769   3.626980  27.162900   7.789190   0.706935   0.095962   5.258850  -1.322760  -3.203290   0.008639   0.000000   0.000000   0.000000   4.761170  21.570300   0.085932  -3.857880  11.037600  -8.804880   3.599510  -6.927330   2.060690   0.000000   0.000000   0.000000
